<?xml version="1.0" standalone="no"?>
<!DOCTYPE svg PUBLIC "-//W3C//DTD SVG 20010904//EN"
 "http://www.w3.org/TR/2001/REC-SVG-20010904/DTD/svg10.dtd">
<svg version="1.0" xmlns="http://www.w3.org/2000/svg"
 width="512.000000pt" height="512.000000pt" viewBox="0 0 512.000000 512.000000"
 preserveAspectRatio="xMidYMid meet">
<metadata>
Created by potrace 1.11, written by Peter Selinger 2001-2013
</metadata>
<g transform="translate(0.000000,512.000000) scale(0.100000,-0.100000)"
fill="#000000" stroke="none">
<path d="M475 5096 c-212 -59 -371 -210 -447 -427 l-23 -64 -2 -2020 c-1
-1683 1 -2031 12 -2083 40 -181 173 -352 336 -430 161 -78 -26 -72 2204 -72
2228 0 2055 -5 2213 71 157 76 281 229 331 408 21 74 21 88 21 2076 0 1960 0
2003 -20 2079 -30 117 -82 209 -170 296 -91 91 -154 126 -315 178 -11 4 -929
8 -2040 9 l-2020 2 -80 -23z"/>
</g>
</svg>
